<svg width="262" height="129" viewBox="0 0 262 129" fill="none" xmlns="http://www.w3.org/2000/svg">
<path d="M114 2.90039C114 1.50039 115.1 0.400391 116.5 0.400391H124.7C127.3 0.400391 129.4 1.10039 130.7 2.40039C131.8 3.50039 132.3 4.70039 132.3 6.30039V6.40039C132.3 9.00039 130.9 10.4004 129.3 11.4004C132 12.4004 133.6 14.0004 133.6 17.1004V17.2004C133.6 21.4004 130.2 23.5004 125 23.5004H116.6C115.2 23.5004 114.1 22.4004 114.1 21.0004V2.90039H114ZM123.6 9.70039C125.8 9.70039 127.2 9.00039 127.2 7.30039V7.20039C127.2 5.70039 126 4.80039 123.9 4.80039H118.9V9.70039H123.6ZM124.9 18.9004C127.1 18.9004 128.5 18.1004 128.5 16.4004V16.3004C128.5 14.8004 127.3 13.8004 124.8 13.8004H118.9V18.9004H124.9Z" fill="#F37021"/>
<path d="M135.1 20.1L143.1 2C143.7 0.8 144.7 0 146.1 0H146.4C147.8 0 148.8 0.8 149.3 2L157.3 20.1C157.5 20.5 157.6 20.8 157.6 21.1C157.6 22.4 156.5 23.5 155.2 23.5C154 23.5 153.2 22.8 152.8 21.8L151.3 18.2H141.2L139.6 22C139.2 23 138.3 23.6 137.3 23.6C136 23.6 135 22.5 135 21.2C134.8 20.8 134.9 20.5 135.1 20.1ZM149.3 13.7L146.1 6.1L142.9 13.7H149.3Z" fill="#F37021"/>
<path d="M160.3 2.79922C160.3 1.39922 161.4 0.299219 162.8 0.299219H163.3C164.5 0.299219 165.2 0.899219 165.9 1.79922L175.7 14.5992V2.69922C175.7 1.29922 176.8 0.199219 178.2 0.199219C179.6 0.199219 180.7 1.29922 180.7 2.69922V20.9992C180.7 22.3992 179.6 23.4992 178.2 23.4992H178C176.8 23.4992 176.1 22.8992 175.4 21.9992L165.3 8.69922V20.9992C165.3 22.3992 164.2 23.4992 162.8 23.4992C161.4 23.4992 160.3 22.3992 160.3 20.9992V2.79922Z" fill="#F37021"/>
<path d="M184.9 2.69961C184.9 1.29961 186 0.19961 187.4 0.19961C188.8 0.19961 189.9 1.29961 189.9 2.69961V10.3996L199.2 1.09961C199.8 0.499609 200.4 0.0996094 201.3 0.0996094C202.7 0.0996094 203.6 1.19961 203.6 2.39961C203.6 3.19961 203.2 3.79961 202.7 4.29961L196.2 10.2996L203.3 19.1996C203.7 19.6996 204 20.1996 204 20.9996C204 22.3996 202.9 23.4996 201.4 23.4996C200.4 23.4996 199.8 22.9996 199.3 22.2996L192.7 13.6996L189.8 16.3996V20.9996C189.8 22.3996 188.7 23.4996 187.3 23.4996C185.9 23.4996 184.8 22.3996 184.8 20.9996V2.69961H184.9Z" fill="#F37021"/>
<path d="M59.4997 20.4008L67.4997 2.30078C68.0997 1.10078 69.0997 0.300781 70.4997 0.300781H70.7997C72.1997 0.300781 73.1997 1.10078 73.6997 2.30078L81.6997 20.4008C81.8997 20.8008 81.9997 21.1008 81.9997 21.4008C81.9997 22.7008 80.8997 23.8008 79.5997 23.8008C78.3997 23.8008 77.5997 23.1008 77.1997 22.1008L75.6997 18.5008H65.4997L63.8997 22.3008C63.4997 23.3008 62.5997 23.9008 61.5997 23.9008C60.2997 23.9008 59.2997 22.8008 59.2997 21.5008C59.1997 21.1008 59.3997 20.7008 59.4997 20.4008ZM73.6997 14.0008L70.4997 6.40078L67.3997 14.0008H73.6997Z" fill="#671773"/>
<path d="M83.7998 13.8004V2.90039C83.7998 1.50039 84.8998 0.400391 86.2998 0.400391C87.6998 0.400391 88.7998 1.50039 88.7998 2.90039V13.6004C88.7998 17.3004 90.6998 19.3004 93.7998 19.3004C96.8998 19.3004 98.7998 17.4004 98.7998 13.8004V2.90039C98.7998 1.50039 99.8998 0.400391 101.3 0.400391C102.7 0.400391 103.8 1.50039 103.8 2.90039V13.5004C103.8 20.5004 99.8998 23.9004 93.6998 23.9004C87.5998 24.0004 83.7998 20.5004 83.7998 13.8004Z" fill="#671773"/>
<path d="M177.7 127.599C201.559 127.599 220.9 108.258 220.9 84.3992C220.9 60.5405 201.559 41.1992 177.7 41.1992C153.841 41.1992 134.5 60.5405 134.5 84.3992C134.5 108.258 153.841 127.599 177.7 127.599Z" fill="#671773"/>
<path d="M177.7 110.999C192.39 110.999 204.3 99.0896 204.3 84.3988C204.3 69.7081 192.39 57.7988 177.7 57.7988C163.009 57.7988 151.1 69.7081 151.1 84.3988C151.1 99.0896 163.009 110.999 177.7 110.999Z" fill="#F37021"/>
<path d="M178.5 63.9988C177.1 63.6988 175.6 64.0988 174.5 65.1988L163.2 76.4988C161.5 78.1988 161.5 80.9988 163.2 82.6988C164.1 83.5988 165.2 83.9988 166.3 83.9988C167.4 83.9988 168.5 83.5988 169.4 82.6988L173.3 78.7988V100.699C173.3 103.099 175.3 105.099 177.7 105.099C180.1 105.099 182.1 103.099 182.1 100.699V68.1988C182 66.0988 180.5 64.2988 178.5 63.9988Z" fill="#671773"/>
<path d="M191.9 76.0996L183.6 68.0996L184.8 80.0996C185.1 82.2996 186.9 83.8996 189.1 83.8996C191.5 83.8996 193.5 81.8996 193.5 79.4996C193.5 78.0996 192.9 76.8996 191.9 76.0996Z" fill="white"/>
<path d="M44.4998 41.1992C20.5998 41.1992 1.2998 60.5992 1.2998 84.3992C1.2998 108.199 20.6998 127.599 44.4998 127.599C68.2998 127.599 87.6998 108.199 87.6998 84.3992C87.6998 60.5992 68.2998 41.1992 44.4998 41.1992ZM44.4998 111.099C29.7998 111.099 17.8998 99.1992 17.8998 84.4992C17.8998 69.7992 29.7998 57.8992 44.4998 57.8992C59.1998 57.8992 71.0998 69.7992 71.0998 84.4992C71.0998 99.1992 59.1998 111.099 44.4998 111.099Z" fill="#671773"/>
<path d="M121 41.4C118.4 40.8 115.6 41.5999 113.5 43.5999L92.6002 64.4999C89.4002 67.6999 89.4002 72.8 92.6002 76C94.2002 77.6 96.3002 78.4 98.3002 78.4C100.4 78.4 102.5 77.6 104 76L111.3 68.6999V119.8C111.3 124.3 114.9 127.9 119.4 127.9C123.9 127.9 127.5 124.3 127.5 119.8V49.4C127.6 45.4 124.7 42.1 121 41.4Z" fill="#671773"/>
<path d="M254.4 41.4C251.8 40.8 249 41.5999 246.9 43.5999L226 64.4999C222.8 67.6999 222.8 72.8 226 76C227.6 77.6 229.7 78.4 231.7 78.4C233.8 78.4 235.9 77.6 237.4 76L244.7 68.6999V119.8C244.7 124.3 248.3 127.9 252.8 127.9C257.3 127.9 260.9 124.3 260.9 119.8V49.4C261 45.4 258.2 42.1 254.4 41.4Z" fill="#671773"/>
<path d="M0.799805 128H2.2998" stroke="#C7C8CA" stroke-width="0.5" stroke-miterlimit="10"/>
<path d="M5.39941 128H258.099" stroke="#C7C8CA" stroke-width="0.5" stroke-miterlimit="10" stroke-dasharray="3.03 3.03"/>
<path d="M259.7 128H261.2" stroke="#C7C8CA" stroke-width="0.5" stroke-miterlimit="10"/>
</svg>
